<svg xmlns="http://www.w3.org/2000/svg" xmlns:xlink="http://www.w3.org/1999/xlink" viewBox="0 0 750 500"><defs><style>.cls-1{fill:none;}.cls-2{fill:#75bb95;}.cls-3{fill:#417162;}.cls-4{fill:#a1d6b8;}.cls-5{clip-path:url(#clip-path);}.cls-6{clip-path:url(#clip-path-2);}.cls-7{clip-path:url(#clip-path-3);}.cls-8{fill:#bce8ce;}.cls-9{fill:#364843;}.cls-10{clip-path:url(#clip-path-4);}.cls-11{clip-path:url(#clip-path-5);}.cls-12{clip-path:url(#clip-path-6);}.cls-13{clip-path:url(#clip-path-7);}.cls-14{clip-path:url(#clip-path-8);}.cls-15{clip-path:url(#clip-path-9);}.cls-16{clip-path:url(#clip-path-10);}.cls-17{clip-path:url(#clip-path-11);}</style><clipPath id="clip-path"><rect class="cls-1" y="33.81" width="242.79" height="432.07"/></clipPath><clipPath id="clip-path-2"><path class="cls-2" d="M-48.48,150.68c1.86-34,17.59-60.62,36.73-60.62,6.64,0,12.87,3.22,18.26,8.84C9.32,75.68,29.93,57.65,55,57.65c19,0,35.47,10.41,43.52,25.59A30.44,30.44,0,0,1,113.93,79c16.49,0,30.45,13.67,35.18,32.54,23.19,6.47,48.61,21.83,64.27,54.3,20.72,42.93-39.21,102.79-66.33,102.79a53.65,53.65,0,0,1-24.87-6c-8.15,9.75-18,15.47-28.7,15.47-13.65,0-26-9.37-35.11-24.57-6.77,15-16.94,24.57-28.3,24.57-9.57,0-18.29-6.77-24.85-17.87-9.11,7.27-21.42,11.05-34.18,6.33C-83.38,246.38-110.44,156.62-48.48,150.68Z"/></clipPath><clipPath id="clip-path-3"><rect class="cls-1" y="77" width="128.51" height="119.04"/></clipPath><clipPath id="clip-path-4"><rect class="cls-1" x="233.84" width="516.16" height="233.37"/></clipPath><clipPath id="clip-path-5"><rect class="cls-1" x="494.9" width="255.1" height="181.34"/></clipPath><clipPath id="clip-path-6"><path class="cls-3" d="M41.88,360.62c16.7-11-.44-33.91-17.56-51.05,29.34,20.63,76.07,47,86.5,14.33,9.89-30.94-38.08-39-74-40.88,21.47-2.41,43.34-9.06,37.75-26.53C64.14,223.91,0,278.65,0,278.65v15.13S13.31,379.41,41.88,360.62Z"/></clipPath><clipPath id="clip-path-7"><rect class="cls-1" x="449.22" y="314.99" width="300.78" height="213.81"/></clipPath><clipPath id="clip-path-8"><rect class="cls-1" y="338.35" width="345.73" height="161.65"/></clipPath><clipPath id="clip-path-9"><rect class="cls-1" x="233.84" y="311.2" width="163.93" height="188.8" transform="translate(631.62 811.2) rotate(180)"/></clipPath><clipPath id="clip-path-10"><rect class="cls-1" x="476.92" y="310.32" width="168.43" height="164.33"/></clipPath><clipPath id="clip-path-11"><rect class="cls-1" x="561.36" y="247.94" width="188.64" height="147.21"/></clipPath></defs><g id="BACKGROUND"><rect class="cls-4" width="750" height="500"/></g><g id="OBJECTS"><path class="cls-2" d="M691.82,201.65,651,261.7C627.44,287,642.88,94.19,646.87,14h-23c-2.39,143.88-11.48,287.58,11.07,430.23h38.25s-40.56-126.4-20.33-160.95l43-79.17a2.33,2.33,0,0,0,.28-1.12h0A2.34,2.34,0,0,0,691.82,201.65Z"/><path class="cls-2" d="M635,383a45.84,45.84,0,0,0,4.6-22.34,5.65,5.65,0,0,0-2.4-4.42l0,0a119.46,119.46,0,0,1-5.6,12.42c-13.77,25.59-29.73,30.6-20.26,11.3a46.79,46.79,0,0,0,4.07-27.83,7.86,7.86,0,0,0-6.37-6.57q-3.09-.57-6.22-1a103.79,103.79,0,0,1-5.53,12.93c-10.49,19.63-22.77,23.41-15.56,8.6a35.18,35.18,0,0,0,3.44-17.18,6.53,6.53,0,0,0-6.29-6.17c-16.82-.64-32.18-.56-41.09-4.38,4.32,8,5.7,22.12,7.61,37.68a6.54,6.54,0,0,0,9.26,5.15c1-.45,1.92-1,2.88-1.54,14.12-8.48,11.43,4.08-7.21,16.25-.58.38-1.18.76-1.81,1.13.69,3.59,1.47,7.16,2.4,10.65a7.93,7.93,0,0,0,9.33,5.72A45,45,0,0,0,574,407.92c18.39-11.13,14.8,5.21-9.48,21.17-1.1.73-2.28,1.45-3.51,2.18.66,1,1.36,2,2.09,2.93a15.52,15.52,0,0,0,15.48,5.74,44.75,44.75,0,0,0,14.3-5.6c16.49-10,15.31,2.13-2.61,16.24,26.15,4,54.19-14.6,54.19-14.6s18.12-33.27,8.39-59.9C639.71,397.8,626.14,401.14,635,383Zm-28-19.22c1.29-1.4,3-1.93,3.81-1.18s.44,2.49-.85,3.89-3,1.93-3.8,1.18S605.8,365.18,607.08,363.78ZM569.21,401.6c-3.08,3.36-6.73,5-8.15,3.74s-.06-5.07,3-8.44,6.73-5,8.15-3.75S572.3,398.23,569.21,401.6Z"/><g class="cls-5"><path class="cls-2" d="M-1.47,235.93l53,64.82c16.4,17.65,5.65-116.65,2.87-172.52h16c1.66,100.21,8,200.28-7.71,299.63H36.09s28.24-88,14.16-112.09L-1.47,241.65Z"/><path class="cls-2" d="M-48.48,150.68c1.86-34,17.59-60.62,36.73-60.62,6.64,0,12.87,3.22,18.26,8.84C9.32,75.68,29.93,57.65,55,57.65c19,0,35.47,10.41,43.52,25.59A30.44,30.44,0,0,1,113.93,79c16.49,0,30.45,13.67,35.18,32.54,23.19,6.47,48.61,21.83,64.27,54.3,20.72,42.93-39.21,102.79-66.33,102.79a53.65,53.65,0,0,1-24.87-6c-8.15,9.75-18,15.47-28.7,15.47-13.65,0-26-9.37-35.11-24.57-6.77,15-16.94,24.57-28.3,24.57-9.57,0-18.29-6.77-24.85-17.87-9.11,7.27-21.42,11.05-34.18,6.33C-83.38,246.38-110.44,156.62-48.48,150.68Z"/><g class="cls-6"><path class="cls-2" d="M-92.82,134.41c0,54,16.39,107.85,106.67,107.85s220.26-53.87,220.26-107.85S160.92,36.66,70.65,36.66-92.82,80.42-92.82,134.41Z"/><path class="cls-2" d="M217.66,177.19c0,25.2-46.13,65.24-77.6,65.24s-57-20.43-57-45.62,25.5-45.63,57-45.63S217.66,152,217.66,177.19Z"/><path class="cls-2" d="M52.33,227.65c0,16.07,26.06,30.84,40.36,30.84s25.9-13,25.9-29.1-11.59-29.1-25.9-29.1S52.33,211.57,52.33,227.65Z"/><ellipse class="cls-2" cx="30.72" cy="224.97" rx="29.69" ry="31.74"/></g><path class="cls-2" d="M166,107.37s-4.38,1.85-8.29.32-5.86-5.87-5.86-5.87,4.38-1.84,8.29-.31S166,107.37,166,107.37Z"/><path class="cls-2" d="M132.9,269.65s-2.08,4.27-6,5.69-8.28-.56-8.28-.56,2.08-4.27,6-5.69S132.9,269.65,132.9,269.65Z"/></g><path class="cls-2" d="M148.77,386.93A130,130,0,0,0,144.12,408l8.65-13.49c18,37.14,8.51,68.92,8.51,68.92-19.06-9.26-38.18-28.12-48.6-50.25,3.91-.34,8-.87,12.33-1.65l-14.7-3.83c-5.21-13.2-7.2-27.33-4.27-41.15,3.16,1,6.51,2,10,2.91l-9-7.22c5-17.22,18-33.74,42.52-47.11C149.63,315.12,121.44,338.81,148.77,386.93Z"/><g class="cls-7"><path class="cls-3" d="M16.13,144a204.44,204.44,0,0,1,30.07,3.55c4.57-2.88,9.36-5.84,14.36-8.84l-6.79-3.16c3.82.19,7.4.46,10.79.78,8.62-5.09,17.82-10.28,27.53-15.44l-18.3-8.5a209.15,209.15,0,0,1,28.43,3.23c7.69-3.92,15.65-7.79,23.86-11.54,0,0-29.62-10.84-59-5.85-40.95,6.94-85,35.93-79.47,90.87,0,0,18.44-15.4,49.19-35.5Z"/></g><path class="cls-2" d="M186,387.62a129.64,129.64,0,0,0-13.63,16.7l13.79-8.14c-.69,41.24-23.45,65.37-23.45,65.37-12.84-16.86-21.42-42.31-20.75-66.77q5.46,2.21,11.75,4.09L142.3,388.82c1.29-14.12,5.87-27.64,14.72-38.66,2.35,2.37,4.89,4.75,7.66,7.13l-4.77-10.49c12.22-13.13,31.3-22,59.19-22.9C219.1,323.9,183.26,332.35,186,387.62Z"/><circle class="cls-8" cx="370.85" cy="250" r="140.41"/><path class="cls-2" d="M377.13,153s-23.84,23.14-21.34,43.16c2.37,18.88,24.08,28.48,24.08,28.48C374.55,213.2,374,203,376,194.29l-5.64.77a72.67,72.67,0,0,1,7.4-6.68c6.73-18,23.17-28.18,23.17-28.18Z"/><path class="cls-4" d="M410.07,161.75a116.83,116.83,0,0,1,13.85-13.45l-6.2,12.93c36.74-3.79,56.49-25.94,56.49-25.94-16-10.16-39.38-15.85-61.14-13.37,1.59,3.14,3.12,6.52,4.55,10.16l-9.83-9.38c-12.5,2.24-24.21,7.37-33.35,16.11,2.29,1.91,4.61,4,6.94,6.28l-9.72-3.44c-10.76,11.9-17.22,29.6-15.87,54.55C355.79,196.2,360.57,163.58,410.07,161.75Z"/><path class="cls-4" d="M478.45,295a45.81,45.81,0,0,0,4.6-22.33,5.69,5.69,0,0,0-2.4-4.43l0,0a120.63,120.63,0,0,1-5.6,12.43c-13.77,25.58-29.73,30.59-20.26,11.3a46.9,46.9,0,0,0,4.07-27.84,7.88,7.88,0,0,0-6.38-6.57c-2-.38-4.13-.7-6.21-1a103.15,103.15,0,0,1-5.53,12.93c-10.49,19.63-22.77,23.42-15.56,8.61a35.09,35.09,0,0,0,3.43-17.19,6.52,6.52,0,0,0-6.28-6.17c-16.82-.64-32.18-.56-41.09-4.38,4.32,8.06,5.7,22.12,7.61,37.68a6.55,6.55,0,0,0,9.26,5.16,32.16,32.16,0,0,0,2.87-1.55c14.12-8.48,11.43,4.09-7.2,16.26-.58.37-1.18.75-1.81,1.13.69,3.59,1.47,7.15,2.4,10.64a7.92,7.92,0,0,0,9.33,5.72,45,45,0,0,0,13.69-5.47c18.39-11.13,14.8,5.22-9.48,21.17-1.1.73-2.28,1.46-3.52,2.18.67,1,1.37,2,2.1,2.93A15.52,15.52,0,0,0,422,352a45.08,45.08,0,0,0,14.3-5.6c16.49-10,15.3,2.13-2.61,16.24,26.15,4,54.19-14.61,54.19-14.61s18.12-33.27,8.39-59.9C483.12,309.81,469.55,313.15,478.45,295Zm-28-19.22c1.29-1.4,3-1.93,3.81-1.18s.44,2.49-.85,3.89-3,1.93-3.8,1.19S449.21,277.19,450.49,275.79Zm-37.87,37.82c-3.08,3.37-6.73,5-8.15,3.75s-.06-5.08,3-8.45,6.73-5,8.15-3.75S415.71,310.24,412.62,313.61Z"/><path class="cls-4" d="M278.6,331.27A24.12,24.12,0,0,0,290,334.86a3,3,0,0,0,2.44-1v0a60.15,60.15,0,0,1-6.18-3.58c-12.62-8.55-14.38-17.15-4.82-11.18a24.67,24.67,0,0,0,14.31,3.62,4.14,4.14,0,0,0,3.77-3c.31-1,.59-2.12.85-3.19a52.92,52.92,0,0,1-6.45-3.58c-9.68-6.52-11-13.13-3.66-8.58a18.45,18.45,0,0,0,8.78,2.72,3.43,3.43,0,0,0,3.56-3c1.23-8.73,2-16.75,4.49-21.2-4.44,1.82-11.85,1.79-20.07,1.95a3.44,3.44,0,0,0-3.19,4.56c.19.53.41,1.05.65,1.58,3.67,7.83-2.74,5.75-8.09-4.63-.17-.32-.33-.65-.5-1-1.9.16-3.81.38-5.68.68a4.15,4.15,0,0,0-3.48,4.57,23.41,23.41,0,0,0,2.12,7.43c4.82,10.19-3.51,7.44-10.54-6.08-.32-.61-.64-1.27-.95-2-.56.29-1.11.6-1.64.93a8.18,8.18,0,0,0-3.83,7.78,23.72,23.72,0,0,0,2.16,7.76c4.32,9.13-1.93,7.87-8.33-2.24-3.51,13.44,4.72,29.06,4.72,29.06s16.38,11.24,30.8,7.59C270.63,332.91,269.61,325.65,278.6,331.27Zm11.53-13.56c.66.74.85,1.66.41,2s-1.32.1-2-.64-.85-1.67-.42-2.05S289.47,317,290.13,317.71Zm-17.71-21.79c-1.59-1.79-2.27-3.78-1.52-4.45s2.66.24,4.25,2,2.27,3.78,1.52,4.45S274,297.71,272.42,295.92Z"/><path class="cls-4" d="M518.05,292.15c-.28-.69-28-69.95-93.78-83l.4-2c66.89,13.3,95,83.59,95.29,84.3Z"/><path class="cls-4" d="M493,250.49s-6.59-5.27-26.88,4.39C466.15,254.88,483.19,260.2,493,250.49Z"/><path class="cls-4" d="M493.61,250.41s-6.57-5.3-1.52-27.19C492.09,223.22,501,238.7,493.61,250.41Z"/><path class="cls-4" d="M479.61,236.66s-7.49-3.89-6.88-26.35C472.73,210.31,484.5,223.73,479.61,236.66Z"/><path class="cls-4" d="M479.44,235.67s-4.89,6.88-27,3.16C452.4,238.83,467.31,229,479.44,235.67Z"/><path class="cls-4" d="M464.06,225.81s-7.49-3.89-6.87-26.35C457.19,199.46,469,212.88,464.06,225.81Z"/><path class="cls-4" d="M465.19,224.41s-4.88,6.88-27,3.15C438.15,227.56,453.07,217.77,465.19,224.41Z"/><path class="cls-4" d="M446.22,215.89s-7.49-3.89-6.87-26.35C439.35,189.54,451.11,203,446.22,215.89Z"/><path class="cls-4" d="M427.29,208.29s-5,6.77-27.11,2.53C400.18,210.82,415.32,201.38,427.29,208.29Z"/><path class="cls-4" d="M446.89,215.19s-3.35,7.74-25.8,8.68C421.09,223.87,433.65,211.21,446.89,215.19Z"/><path class="cls-4" d="M247.33,244a151.07,151.07,0,0,1,22.35-1.47c2.94-2.72,6-5.52,9.26-8.37l-5.37-1.38c2.8-.38,5.45-.67,7.95-.89,5.59-4.87,11.58-9.89,18-15L285,213.27a154.65,154.65,0,0,1,21.12-1.49q7.59-5.84,15.8-11.62s-23-3.88-43.72,3.71c-28.85,10.58-57,37.61-45.56,76.83a425.59,425.59,0,0,1,31-32.46Z"/><path class="cls-4" d="M293.19,118s21.39,15.25,47.93,16c0,0-24.16,8.21-42.85-2.19,0,0,15.43,24.07,45,29.43,0,0-24.13,4-48.63-18,8.63,12.05,14.47,26.21,18.35,41.85-9.24-14.67-18.73-27.65-28.71-37.4,5,10.95,5.16,22,1.6,33-2.13-15-6-27.81-14.24-35.32Z"/><path class="cls-9" d="M233.1,185l-38.79-26.43C161.18,138.73,392.41,63,536.54,0h-39C347.3,45.06,141.72,125.49,0,200v62.85s130.68-107.7,172.43-95l57.86,24a2.9,2.9,0,0,0,2,.09C235.12,191,235.62,186.66,233.1,185Z"/><path class="cls-9" d="M188.5,390.26c-4,0-7.66-2-11-6-13.08-15.61-21.27-61.85-24.35-137.45-2.29-56.14-.76-108.42-.75-108.94l2.14.09c-.07,2.08-5.92,208.29,24.49,244.59,2.91,3.48,6.1,5.24,9.46,5.24,11.69,0,27.55-23.71,36.67-136.69,5.49-68.06,5.79-137,5.79-137.72h2.14c0,.69-.3,69.75-5.81,137.93C219.86,343.51,206.8,390.26,188.5,390.26Z"/><path class="cls-9" d="M166.57,350.57a27.34,27.34,0,0,0,2.07,13.19,25.7,25.7,0,0,0,5-12.09,27.41,27.41,0,0,0-2.08-13.19A25.56,25.56,0,0,0,166.57,350.57Z"/><path class="cls-9" d="M215.16,251c-5.25,3.61-7.67,10.08-7.67,10.08a18.69,18.69,0,0,0,11.34-3c5.25-3.61,7.67-10.08,7.67-10.08A18.61,18.61,0,0,0,215.16,251Z"/><path class="cls-9" d="M151.58,261a20.23,20.23,0,0,0-10.21-6.44s.79,7,5,12.12a20.1,20.1,0,0,0,10.2,6.44S155.77,266.08,151.58,261Z"/><g class="cls-10"><path class="cls-9" d="M863.74,190.7C761.87,187.57,665.4,174.2,577,151c-70.76-18.6-136.54-43.52-195.51-74.09C280.92,24.75,234.3-26.53,233.84-27L239-31.63C239.4-31.12,285.41,19.42,385,71c58.51,30.28,123.79,55,194,73.43,87.82,23.05,183.68,36.32,284.92,39.43Z"/><path class="cls-9" d="M532.83,145.07c-8.45,5-12.35,14.07-12.35,14.07s9.81.88,18.26-4.15,12.34-14.07,12.34-14.07S541.27,140,532.83,145.07Z"/><path class="cls-9" d="M412,67.64c-8.45,5-12.34,14.07-12.34,14.07s9.8.88,18.25-4.15,12.34-14.08,12.34-14.08S420.41,62.6,412,67.64Z"/></g><path class="cls-3" d="M425.15,0s29,183.62,324.85,188.7V175.52S488.16,170.92,450.73,0Z"/><path class="cls-3" d="M570.72,229.76a22.29,22.29,0,0,0,1.69,10.76,21,21,0,0,0,4.11-9.86,22.25,22.25,0,0,0-1.7-10.77A20.92,20.92,0,0,0,570.72,229.76Z"/><path class="cls-3" d="M552.11,167.37c-4.29,2.95-6.26,8.23-6.26,8.23a15.25,15.25,0,0,0,9.25-2.43c4.29-2.94,6.26-8.22,6.26-8.22A15.2,15.2,0,0,0,552.11,167.37Z"/><path class="cls-3" d="M558.49,156.66a16.42,16.42,0,0,0-8.32-5.25,21.36,21.36,0,0,0,4.06,9.88,16.49,16.49,0,0,0,8.33,5.26A21.45,21.45,0,0,0,558.49,156.66Z"/><path class="cls-3" d="M617.77,157.52c-7.54,84.52-19.94,102.61-29.16,102.61-2.74,0-5.34-1.44-7.71-4.28-12.17-14.52-17.22-62.39-19.21-107.6l-1.78-.29c2.6,60,9.24,96.75,19.73,109.29,2.72,3.24,5.74,4.88,9,4.88,14.32,0,24.7-35.1,30.87-104.32Z"/><path class="cls-9" d="M17.49,0C23.39,6.39,36,11.51,51.83,14a35.35,35.35,0,0,0,1.51,13.44c4.26,12.78,16.27,17.7,31.2,14.8a21,21,0,0,0,.63,9.58c3.92,11.76,19.55,11.64,34.91-.27l.41-.32c8.47,18.17,35.07,17,61.24-3.24q2.94-2.28,5.72-4.76c-2.5,6.48-3.19,12.75-1.54,17.7,3.92,11.76,19.55,11.64,34.91-.27a62.8,62.8,0,0,0,13.92-15c8.81,17.46,35.07,16.12,60.9-3.91a112.83,112.83,0,0,0,24.31-26c26.44-.07,48.94-6.56,57.57-15.64Z"/><g class="cls-11"><path class="cls-3" d="M627.7,51.26a30,30,0,0,1-5.4-.5A38.95,38.95,0,0,1,549.8,31a39.5,39.5,0,0,1,.46-6,16.61,16.61,0,1,1-4.14-32.7c7.1,0,32.09-.25,42.63-.25,7.79,0,32.25.25,39,.25a29.49,29.49,0,0,1,0,59Z"/><path class="cls-3" d="M538.67,44.14c-.87-5.41,3-10.52,3-10.52s5.24,3.66,6.11,9.06-3,10.51-3,10.51S539.54,49.54,538.67,44.14Z"/><path class="cls-3" d="M618.35,60.1c-1.42-5.29,1.87-10.76,1.87-10.76s5.58,3.09,7,8.38-1.87,10.76-1.87,10.76S619.76,65.39,618.35,60.1Z"/><path class="cls-3" d="M626,56c-3.38-1.88-4.55-6.25-4.55-6.25s4.32-1.32,7.71.56,4.56,6.25,4.56,6.25S629.38,57.92,626,56Z"/><path class="cls-3" d="M800.12,76.21a42.16,42.16,0,0,1-7.67-.71A55.36,55.36,0,0,1,690.06,38.86a23.61,23.61,0,1,1-5.89-46.47c10.1,0,45.62-.36,60.59-.36,11.08,0,45.85.36,55.36.36a41.91,41.91,0,0,1,0,83.82Z"/><path class="cls-3" d="M673.59,66.09c-1.23-7.68,4.21-14.94,4.21-14.94s7.45,5.19,8.68,12.87S682.27,79,682.27,79,674.83,73.77,673.59,66.09Z"/><path class="cls-3" d="M735.64,133a30.13,30.13,0,0,1-5.4-.5,38.95,38.95,0,0,1-72.5-19.78,39.6,39.6,0,0,1,.46-6A16.61,16.61,0,1,1,654.06,74c7.1,0,32.1-.26,42.63-.26,7.8,0,32.26.26,38.95.26a29.49,29.49,0,1,1,0,59Z"/><path class="cls-3" d="M646.62,125.84c-.87-5.4,3-10.51,3-10.51s5.24,3.65,6.11,9-3,10.52-3,10.52S647.48,131.24,646.62,125.84Z"/><path class="cls-3" d="M726.29,141.8c-1.42-5.29,1.87-10.76,1.87-10.76s5.59,3.1,7,8.38-1.87,10.76-1.87,10.76S727.71,147.09,726.29,141.8Z"/><path class="cls-3" d="M733.94,137.74c-3.39-1.88-4.56-6.25-4.56-6.25s4.33-1.32,7.72.56,4.55,6.25,4.55,6.25S737.33,139.62,733.94,137.74Z"/><path class="cls-3" d="M717.29,86a47.21,47.21,0,0,1-8.55-.79A61.72,61.72,0,0,1,594.6,44.35,26.31,26.31,0,1,1,588-7.44c11.25,0,50.85-.4,67.54-.4,12.35,0,51.11.4,61.71.4a46.72,46.72,0,1,1,0,93.43Z"/><path class="cls-3" d="M578.05,98.5c-4.94-7.13-3-17-3-17s10,1.63,14.93,8.75,3,17,3,17S583,105.62,578.05,98.5Z"/><path class="cls-3" d="M702.48,100c-2.25-8.37,3-17,3-17s8.85,4.91,11.1,13.28-3,17-3,17S704.72,108.38,702.48,100Z"/><path class="cls-3" d="M714.6,93.57c-5.37-3-7.22-9.91-7.22-9.91s6.85-2.09,12.22.9,7.22,9.9,7.22,9.9S720,96.55,714.6,93.57Z"/><path class="cls-9" d="M679.05,37.07a23.07,23.07,0,0,1-4.1-.38,29.62,29.62,0,0,1-55.14-15,30,30,0,0,1,.35-4.57,12.51,12.51,0,0,1-3.14.4,12.63,12.63,0,1,1,0-25.26c5.4,0,24.4-.19,32.41-.19,5.93,0,24.53.19,29.62.19a22.43,22.43,0,0,1,0,44.85Z"/><path class="cls-9" d="M611.35,31.65c-.66-4.11,2.26-8,2.26-8s4,2.78,4.64,6.89-2.25,8-2.25,8S612,35.76,611.35,31.65Z"/><path class="cls-9" d="M671.94,43.79c-1.08-4,1.42-8.18,1.42-8.18S677.61,38,678.69,42s-1.43,8.19-1.43,8.19S673,47.81,671.94,43.79Z"/><path class="cls-9" d="M677.76,40.7c-2.58-1.43-3.47-4.75-3.47-4.75s3.29-1,5.87.43,3.46,4.75,3.46,4.75S680.33,42.13,677.76,40.7Z"/><path class="cls-9" d="M810.17,56a32,32,0,0,1-5.84-.54A42.1,42.1,0,0,1,726,34.13a43.28,43.28,0,0,1,.5-6.49,17.83,17.83,0,0,1-4.47.56,18,18,0,0,1,0-35.9c7.67,0,34.68-.27,46.07-.27,8.42,0,34.86.27,42.1.27a31.87,31.87,0,0,1,0,63.74Z"/><path class="cls-9" d="M714,48.35C713,42.51,717.15,37,717.15,37s5.66,4,6.6,9.79-3.2,11.36-3.2,11.36S714.89,54.19,714,48.35Z"/><path class="cls-9" d="M761.13,99.19a22.17,22.17,0,0,1-4.1-.38,29.62,29.62,0,0,1-54.78-19.6,12.63,12.63,0,1,1-3.15-24.86c5.4,0,24.4-.19,32.41-.19,5.93,0,24.53.19,29.62.19a22.42,22.42,0,0,1,0,44.84Z"/><path class="cls-9" d="M693.44,93.78c-.67-4.11,2.25-8,2.25-8s4,2.77,4.64,6.88-2.25,8-2.25,8S694.1,97.89,693.44,93.78Z"/><path class="cls-9" d="M747.18,63.48a35.72,35.72,0,0,1-6.5-.6,46.92,46.92,0,0,1-87.35-23.83,47.88,47.88,0,0,1,.55-7.23,20,20,0,1,1-5-39.39c8.56,0,38.67-.3,51.36-.3,9.39,0,38.87.3,46.93.3a35.53,35.53,0,0,1,0,71.05Z"/><path class="cls-9" d="M641.29,73C637.54,67.57,639,60,639,60s7.59,1.24,11.35,6.66,2.26,13,2.26,13S645.05,78.41,641.29,73Z"/><path class="cls-9" d="M735.91,74.13c-1.7-6.37,2.26-13,2.26-13s6.73,3.73,8.43,10.1-2.25,13-2.25,13S737.62,80.5,735.91,74.13Z"/><path class="cls-9" d="M745.13,69.24c-4.08-2.27-5.49-7.53-5.49-7.53s5.21-1.59,9.29.68,5.49,7.53,5.49,7.53S749.21,71.51,745.13,69.24Z"/></g><path class="cls-3" d="M41.88,360.62c16.7-11-.44-33.91-17.56-51.05,29.34,20.63,76.07,47,86.5,14.33,9.89-30.94-38.08-39-74-40.88,21.47-2.41,43.34-9.06,37.75-26.53C64.14,223.91,0,278.65,0,278.65v15.13S13.31,379.41,41.88,360.62Z"/><g class="cls-12"><path class="cls-9" d="M-11.65,286.11l.16-1.2c.81.1,81.09,10.94,137.31,48.33l-.67,1C69.17,297-10.84,286.22-11.65,286.11Z"/><path class="cls-9" d="M-4.2,287.17l.83-.89C10.8,299.55,29.19,320.6,36.3,345.6c4.27,15,2.46,24.21,2.39,24.59l-1.2-.25C37.57,369.58,44.44,332.7-4.2,287.17Z"/><path class="cls-9" d="M-15.89,287.17c40.55-4.75,97.94-36.77,98.51-37.09l.6,1.06c-.58.32-58.18,32.46-99,37.24Z"/></g><g class="cls-13"><path class="cls-9" d="M605.8,468.37a35.18,35.18,0,0,0-6.37.59A45.92,45.92,0,0,0,514,492.27a47.09,47.09,0,0,0,.54,7.08,19.58,19.58,0,1,0-4.88,38.55c8.37,0,37.84.3,50.26.3,9.19,0,38-.3,45.93-.3a34.77,34.77,0,0,0,0-69.53Z"/><path class="cls-9" d="M500.83,476.76c-1,6.37,3.49,12.4,3.49,12.4s6.18-4.31,7.2-10.68-3.49-12.4-3.49-12.4S501.85,470.39,500.83,476.76Z"/><path class="cls-9" d="M594.77,457.94c-1.67,6.23,2.21,12.69,2.21,12.69s6.58-3.65,8.25-9.88-2.2-12.69-2.2-12.69S596.44,451.71,594.77,457.94Z"/><path class="cls-9" d="M603.79,462.73c-4,2.22-5.37,7.37-5.37,7.37s5.1,1.56,9.09-.66,5.38-7.37,5.38-7.37S607.79,460.51,603.79,462.73Z"/><path class="cls-9" d="M809.1,438.94a49,49,0,0,0-9,.85A65.27,65.27,0,0,0,679.33,483a27.83,27.83,0,1,0-6.94,54.78c11.9,0,53.78.43,71.44.43,13.06,0,54-.43,65.27-.43a49.42,49.42,0,0,0,0-98.83Z"/><path class="cls-9" d="M659.91,450.88c-1.46,9.05,5,17.62,5,17.62s8.78-6.12,10.24-15.18-5-17.62-5-17.62S661.36,441.82,659.91,450.88Z"/><path class="cls-9" d="M733.07,372a34.2,34.2,0,0,0-6.36.59A45.92,45.92,0,0,0,641.77,403a19.58,19.58,0,1,0-4.89,38.55c8.38,0,37.85.3,50.27.3,9.19,0,38-.3,45.92-.3a34.77,34.77,0,1,0,0-69.53Z"/><path class="cls-9" d="M628.1,380.43c-1,6.37,3.49,12.4,3.49,12.4s6.18-4.31,7.21-10.68-3.49-12.4-3.49-12.4S629.13,374.06,628.1,380.43Z"/><path class="cls-9" d="M722.05,361.61c-1.67,6.23,2.2,12.69,2.2,12.69s6.59-3.65,8.26-9.89-2.21-12.68-2.21-12.68S723.72,355.38,722.05,361.61Z"/><path class="cls-9" d="M731.06,366.4c-4,2.22-5.37,7.37-5.37,7.37s5.1,1.55,9.1-.66,5.37-7.38,5.37-7.38S735.06,364.18,731.06,366.4Z"/><path class="cls-9" d="M711.43,427.41a54.94,54.94,0,0,0-10.08.94,72.76,72.76,0,0,0-134.57,48.16A31,31,0,1,0,559,537.58c13.27,0,60,.47,79.63.47,14.57,0,60.26-.47,72.76-.47a55.09,55.09,0,1,0,0-110.17Z"/><path class="cls-9" d="M545.13,440.71c-1.62,10.1,5.53,19.64,5.53,19.64s9.79-6.82,11.41-16.92-5.53-19.64-5.53-19.64S546.75,430.62,545.13,440.71Z"/><path class="cls-9" d="M694,410.89c-2.65,9.88,3.49,20.11,3.49,20.11s10.44-5.79,13.08-15.66-3.49-20.11-3.49-20.11S696.61,401,694,410.89Z"/><path class="cls-9" d="M708.26,418.48c-6.34,3.52-8.52,11.68-8.52,11.68s8.09,2.46,14.42-1.05,8.51-11.68,8.51-11.68S714.59,415,708.26,418.48Z"/></g><g class="cls-14"><path class="cls-3" d="M-105.41,500c6.88-11.73,21.51-21.11,40-25.68a100,100,0,0,1,1.75-24.65c5-23.46,18.95-32.49,36.35-27.16a60.31,60.31,0,0,1,.73-17.59c4.57-21.58,22.78-21.36,40.67.49l.48.6c9.86-33.34,40.85-31.27,71.33,5.94q3.44,4.19,6.66,8.74c-2.9-11.9-3.71-23.4-1.79-32.49,4.57-21.58,22.78-21.36,40.67.49a112.39,112.39,0,0,1,16.22,27.63c10.26-32.05,40.85-29.57,70.94,7.17,11.22,13.69,20.87,30.32,28.32,47.81,30.8.13,57,12,67.07,28.7Z"/><path class="cls-9" d="M-74.82,503.74c6.4-8.77,20-15.78,37.26-19.19a60.58,60.58,0,0,1,1.63-18.42c4.63-17.53,17.65-24.27,33.85-20.3a36.42,36.42,0,0,1,.69-13.14c4.25-16.12,21.21-16,37.88.37l.44.45C46.12,408.6,75,410.14,103.37,438c2.13,2.08,4.2,4.27,6.21,6.52-2.71-8.89-3.47-17.48-1.67-24.27,4.25-16.12,21.21-16,37.88.37a82.24,82.24,0,0,1,15.1,20.64c9.56-23.94,38.05-22.1,66.08,5.36a147,147,0,0,1,26.37,35.72c28.69.1,53.1,9,62.47,21.45Z"/></g><g class="cls-15"><path class="cls-9" d="M300,484a41.52,41.52,0,0,1-25.69,2.59,6.66,6.66,0,0,1-4.63-4.18l0,0a113.92,113.92,0,0,0,14.71-5.77c30.61-15,38.45-36.81,15.49-26.76a42.48,42.48,0,0,1-31.78.89c-3.66-1.29-6.27-5.42-6.49-10.21-.14-3-.21-6-.24-9A99.77,99.77,0,0,0,276.62,426c23.48-11.43,29.43-28.2,11.81-20.57a31.75,31.75,0,0,1-19.75,1.85c-3.76-.82-6.37-5.2-6.05-10,1.62-24,3.85-45.76.8-59.08,8.44,7.55,24,12,41.21,17.43,4.87,1.54,7.2,8.7,4.49,14.05q-1,1.92-2.13,3.81c-11.47,18.54,3,16.94,19.24-7.37.5-.75,1-1.55,1.51-2.37,3.93,1.6,7.82,3.35,11.61,5.28,4.43,2.27,6.71,8.55,5.12,14.25a71.11,71.11,0,0,1-8,18.47c-15,24.14,3.79,21.91,25.06-9.73,1-1.44,1.95-3,2.93-4.61q1.56,1.68,3,3.48c4.81,6,6.46,14.91,4.29,23a70.87,70.87,0,0,1-8.27,19.31c-13.48,21.64.27,22.09,18.58-.86.89,37.83-23.91,74.35-23.91,74.35s-39.83,19.86-68.35,1.36C316,493.23,321.58,474.56,300,484Zm-17.67-43.06c-1.75,1.57-2.58,3.9-1.86,5.19s2.74,1.06,4.49-.51,2.58-3.9,1.85-5.19S284.08,439.36,282.33,440.94ZM330,393.84c4.2-3.78,6.59-8.66,5.33-10.9s-5.68-1-9.89,2.79-6.59,8.67-5.33,10.91S325.8,397.63,330,393.84Z"/></g><g class="cls-16"><path class="cls-9" d="M702.48,523.65c-1.37-.31-138.08-32.57-180.83-151.36L518,373.6C561.5,494.41,700.23,527.1,701.63,527.42Z"/><path class="cls-9" d="M617.91,488.73s-11.66-10.79.66-51.26C618.57,437.47,633.24,467.69,617.91,488.73Z"/><path class="cls-9" d="M617.92,489.83s-11.69-10.75-51,4.79C566.88,494.62,598.19,506.8,617.92,489.83Z"/><path class="cls-9" d="M588.4,467.61s-9.33-12.86-51-5.42C537.43,462.19,565.7,480.33,588.4,467.61Z"/><path class="cls-9" d="M586.52,467.58s11.45-11-1.69-51.24C584.83,416.34,570.78,446.86,586.52,467.58Z"/><path class="cls-9" d="M563.85,441.7s-9.33-12.85-51-5.42C512.87,436.28,541.14,454.43,563.85,441.7Z"/><path class="cls-9" d="M561.56,444.21s11.44-11-1.7-51.24C559.86,393,545.81,423.49,561.56,444.21Z"/><path class="cls-9" d="M540.39,411.26s-9.33-12.86-51-5.42C489.41,405.84,517.69,424,540.39,411.26Z"/><path class="cls-9" d="M521,378.15s11.19-11.28-2.87-51.18C518.08,327,504.73,357.8,521,378.15Z"/><path class="cls-9" d="M539.28,412.71s13.47-8.41,9-50.47C548.23,362.24,528.16,389.18,539.28,412.71Z"/></g><g class="cls-17"><path class="cls-9" d="M654,279.12s-52.1-3.78-73,20.11c-19.69,22.53-8.23,58.07-8.23,58.07,7.9-18.26,19.33-29.53,31.61-36.35l-6.8-5.81a114.29,114.29,0,0,1,15.59,1.7c28.11-10.9,57.31-2.29,57.31-2.29Z"/><path class="cls-3" d="M678.26,326.9a183.37,183.37,0,0,1,30.28,2.19l-21.67,6.25c42.89,39.15,89.57,39.16,89.57,39.16-4.84-29.43-22.6-62.81-48.28-85.75-2,5.14-4.39,10.47-7.17,16l.72-21.36c-15.71-12.33-34-20.7-53.8-22.29.15,4.69.13,9.59-.11,14.72l-6.13-15c-25.23-.18-52.76,10.76-80.64,38.45C581,299.23,624.32,270.71,678.26,326.9Z"/></g><path class="cls-9" d="M463.25,477.9l32.28-33a78.13,78.13,0,0,0-19.82-14.42l-12.88,28.53L470,427.83c-2-.83-4.05-1.58-6.13-2.24l-1.61,7.26.15-7.69a77,77,0,0,0-40.23-1.11l.17,8.8-1.84-8.37q-3.16.82-6.23,1.89l7.52,32.68L408.16,428.8a78.27,78.27,0,0,0-22.26,15.08l21,21.48-25.14-17.14A77.69,77.69,0,0,0,362.05,500H518.26a77.7,77.7,0,0,0-16.72-48.19Z"/></g></svg>